<?xml version="1.0" encoding="UTF-8"?>
<svg version="1.1" xmlns="http://www.w3.org/2000/svg" width="496" height="512">
<path d="M0 0 C0.71055038 -0.00175232 1.42110077 -0.00350464 2.15318298 -0.00531006 C4.51295378 -0.00972824 6.87265025 -0.00679072 9.23242188 -0.00341797 C10.86527521 -0.00409102 12.49812845 -0.00506105 14.13098145 -0.00631714 C17.55754549 -0.00779407 20.98408351 -0.00563973 24.41064453 -0.00097656 C28.81271689 0.00472073 33.21472828 0.00144169 37.6167984 -0.00454903 C40.98985253 -0.00815478 44.3628921 -0.00701599 47.73594666 -0.00442123 C49.35953275 -0.003752 50.98312014 -0.00458025 52.60670471 -0.00690079 C54.87195358 -0.00942755 57.13710238 -0.00558641 59.40234375 0 C61.33974426 0.00119339 61.33974426 0.00119339 63.31628418 0.00241089 C66.20117188 0.12939453 66.20117188 0.12939453 67.20117188 1.12939453 C69.72313155 1.52882629 72.23080844 1.88019301 74.76367188 2.19189453 C75.47458984 2.28277344 76.18550781 2.37365234 76.91796875 2.46728516 C78.6785559 2.69178956 80.43980665 2.9110785 82.20117188 3.12939453 C82.20117188 3.78939453 82.20117188 4.44939453 82.20117188 5.12939453 C82.95140625 5.16677734 83.70164062 5.20416016 84.47460938 5.24267578 C91.47185166 5.69212081 97.57050053 6.91917075 104.20117188 9.12939453 C105.53122789 9.4755735 106.86365756 9.81325478 108.20117188 10.12939453 C108.20117188 10.78939453 108.20117188 11.44939453 108.20117188 12.12939453 C109.37679688 12.23251953 110.55242187 12.33564453 111.76367188 12.44189453 C116.04442073 12.96467625 119.2982267 14.32803522 123.20117188 16.12939453 C124.52393243 16.50248084 125.85349264 16.85985868 127.20117188 17.12939453 C127.20117188 17.78939453 127.20117188 18.44939453 127.20117188 19.12939453 C129.18117188 19.45939453 131.16117187 19.78939453 133.20117188 20.12939453 C133.20117188 20.78939453 133.20117188 21.44939453 133.20117188 22.12939453 C134.43867187 22.25314453 134.43867187 22.25314453 135.70117188 22.37939453 C139.96871108 23.29386722 143.39354082 25.05162631 147.20117188 27.12939453 C147.20117188 27.78939453 147.20117188 28.44939453 147.20117188 29.12939453 C149.18117188 29.45939453 151.16117187 29.78939453 153.20117188 30.12939453 C153.20117188 30.78939453 153.20117188 31.44939453 153.20117188 32.12939453 C155.51117188 32.78939453 157.82117188 33.44939453 160.20117188 34.12939453 C160.20117188 34.78939453 160.20117188 35.44939453 160.20117188 36.12939453 C161.52117187 36.45939453 162.84117187 36.78939453 164.20117188 37.12939453 C164.20117188 37.78939453 164.20117188 38.44939453 164.20117188 39.12939453 C165.51021484 39.49871094 165.51021484 39.49871094 166.84570312 39.87548828 C170.4361666 41.21720979 172.86368728 42.85196784 175.88867188 45.19189453 C176.92765625 45.99369141 177.96664063 46.79548828 179.03710938 47.62158203 C183.81388706 51.39087258 188.53212843 55.22746091 193.20117188 59.12939453 C193.88308594 59.69787109 194.565 60.26634766 195.26757812 60.85205078 C200.56638861 65.32685618 205.2592446 70.14711327 209.73242188 75.44189453 C210.99500895 76.89252649 212.34130806 78.26953071 213.70117188 79.62939453 C222.20117188 88.12939453 222.20117188 88.12939453 222.20117188 91.12939453 C222.86117188 91.12939453 223.52117187 91.12939453 224.20117188 91.12939453 C225.64643924 92.86487622 227.00989408 94.66915416 228.32617188 96.50439453 C229.050625 97.50212891 229.77507812 98.49986328 230.52148438 99.52783203 C232.20117188 102.12939453 232.20117188 102.12939453 232.20117188 104.12939453 C232.86117188 104.12939453 233.52117187 104.12939453 234.20117188 104.12939453 C235.49023437 105.77392578 235.49023437 105.77392578 236.82617188 107.94189453 C237.2721875 108.64958984 237.71820313 109.35728516 238.17773438 110.08642578 C239.20117188 112.12939453 239.20117188 112.12939453 239.20117188 115.12939453 C239.86117188 115.12939453 240.52117187 115.12939453 241.20117188 115.12939453 C242.03965992 116.58477021 242.87181122 118.04379826 243.70117188 119.50439453 C244.39726563 120.72255859 244.39726563 120.72255859 245.10742188 121.96533203 C246.20117188 124.12939453 246.20117188 124.12939453 246.20117188 126.12939453 C246.86117188 126.12939453 247.52117187 126.12939453 248.20117188 126.12939453 C248.53117187 128.10939453 248.86117188 130.08939453 249.20117188 132.12939453 C249.86117188 132.12939453 250.52117187 132.12939453 251.20117188 132.12939453 C253.27743501 136.75379878 254.90140139 141.23025963 256.20117188 146.12939453 C256.86117188 146.12939453 257.52117187 146.12939453 258.20117188 146.12939453 C259.04004244 148.56511513 259.87243717 151.00272671 260.70117188 153.44189453 C260.93964844 154.1321875 261.178125 154.82248047 261.42382812 155.53369141 C262.43325451 158.51870942 263.20117188 160.95598368 263.20117188 164.12939453 C263.86117188 164.12939453 264.52117187 164.12939453 265.20117188 164.12939453 C265.53117187 167.09939453 265.86117188 170.06939453 266.20117188 173.12939453 C266.86117188 173.12939453 267.52117187 173.12939453 268.20117188 173.12939453 C268.40613281 174.12841797 268.61109375 175.12744141 268.82226562 176.15673828 C269.09167969 177.44708984 269.36109375 178.73744141 269.63867188 180.06689453 C270.03892578 181.99855469 270.03892578 181.99855469 270.44726562 183.96923828 C270.87298804 186.97578333 270.87298804 186.97578333 272.20117188 188.12939453 C272.4364496 190.47926715 272.61503604 192.83495492 272.76367188 195.19189453 C272.88935547 197.12742188 272.88935547 197.12742188 273.01757812 199.10205078 C273.07816406 200.10107422 273.13875 201.10009766 273.20117188 202.12939453 C273.86117188 202.12939453 274.52117187 202.12939453 275.20117188 202.12939453 C277.03460942 216.00442391 277.51455212 229.6923444 277.46191406 243.6809082 C277.4511966 247.05910223 277.46187355 250.4367634 277.47460938 253.81494141 C277.4818471 267.04225194 276.82840622 280.00124592 275.20117188 293.12939453 C274.54117187 293.12939453 273.88117188 293.12939453 273.20117188 293.12939453 C273.1521875 293.99822266 273.10320312 294.86705078 273.05273438 295.76220703 C272.97796875 296.91462891 272.90320313 298.06705078 272.82617188 299.25439453 C272.7565625 300.39134766 272.68695313 301.52830078 272.61523438 302.69970703 C272.20466519 306.10045935 271.35485564 308.91587692 270.20117188 312.12939453 C269.86381994 313.56126609 269.54903691 314.99876276 269.26367188 316.44189453 C268.26584 321.13569565 266.80348666 325.61086683 265.20117188 330.12939453 C264.54117187 330.12939453 263.88117188 330.12939453 263.20117188 330.12939453 C263.05679687 331.38751953 262.91242188 332.64564453 262.76367188 333.94189453 C262.46368501 336.55606576 262.0430389 338.60379346 261.20117188 341.12939453 C260.54117187 341.12939453 259.88117188 341.12939453 259.20117188 341.12939453 C258.87117188 343.43939453 258.54117187 345.74939453 258.20117188 348.12939453 C257.54117187 348.12939453 256.88117188 348.12939453 256.20117188 348.12939453 C256.11867188 348.95439453 256.03617187 349.77939453 255.95117188 350.62939453 C255.03669919 354.89693374 253.27894009 358.32176347 251.20117188 362.12939453 C250.54117187 362.12939453 249.88117188 362.12939453 249.20117188 362.12939453 C248.87117188 364.10939453 248.54117187 366.08939453 248.20117188 368.12939453 C247.54117187 368.12939453 246.88117188 368.12939453 246.20117188 368.12939453 C245.54117187 370.43939453 244.88117188 372.74939453 244.20117188 375.12939453 C243.54117187 375.12939453 242.88117188 375.12939453 242.20117188 375.12939453 C241.87117188 376.77939453 241.54117187 378.42939453 241.20117188 380.12939453 C240.54117187 380.12939453 239.88117188 380.12939453 239.20117188 380.12939453 C238.97429687 380.81001953 238.74742187 381.49064453 238.51367188 382.19189453 C237.11554641 385.32103248 235.39026287 387.7686283 233.32226562 390.48095703 C232.00984895 392.24999768 232.00984895 392.24999768 231.20117188 395.12939453 C230.22178397 396.14959026 229.22221739 397.15089258 228.20117188 398.12939453 C227.87117188 398.78939453 227.54117187 399.44939453 227.20117188 400.12939453 C226.54117187 400.12939453 225.88117188 400.12939453 225.20117188 400.12939453 C225.13929688 400.68626953 225.07742188 401.24314453 225.01367188 401.81689453 C223.85642318 405.11060236 221.71798259 406.72444207 219.20117188 409.12939453 C217.61890571 410.99088414 216.06873635 412.87375406 214.53320312 414.77392578 C214.09363281 415.22123047 213.6540625 415.66853516 213.20117188 416.12939453 C212.54117187 416.12939453 211.88117188 416.12939453 211.20117188 416.12939453 C210.82992187 416.96470703 210.82992187 416.96470703 210.45117188 417.81689453 C207.75497176 422.80486474 204.45879663 425.75981843 199.85742188 428.87939453 C197.99130453 430.18078336 197.99130453 430.18078336 196.20117188 432.62939453 C194.01686021 435.35978411 191.77414597 437.00078366 188.88476562 438.91845703 C187.13124623 440.10348343 187.13124623 440.10348343 185.61132812 441.77783203 C184.20117188 443.12939453 184.20117188 443.12939453 182.20117188 443.12939453 C182.20117188 443.78939453 182.20117188 444.44939453 182.20117188 445.12939453 C181.56179688 445.41814453 180.92242187 445.70689453 180.26367188 446.00439453 C178.04911108 446.95762904 178.04911108 446.95762904 177.20117188 449.12939453 C175.79439795 449.99400406 174.35044638 450.79892462 172.88867188 451.56689453 C170.44126085 452.85734762 168.23271435 454.10524038 166.03320312 455.78955078 C164.20117188 457.12939453 164.20117188 457.12939453 162.20117188 457.12939453 C162.20117188 457.78939453 162.20117188 458.44939453 162.20117188 459.12939453 C160.55117188 459.45939453 158.90117187 459.78939453 157.20117188 460.12939453 C157.20117188 460.78939453 157.20117188 461.44939453 157.20117188 462.12939453 C154.89117187 462.78939453 152.58117187 463.44939453 150.20117188 464.12939453 C150.20117188 464.78939453 150.20117188 465.44939453 150.20117188 466.12939453 C147.43481847 467.47217185 144.66240977 468.80194681 141.88867188 470.12939453 C141.10298828 470.51095703 140.31730469 470.89251953 139.5078125 471.28564453 C138.75048828 471.64658203 137.99316406 472.00751953 137.21289062 472.37939453 C136.16814575 472.88212891 136.16814575 472.88212891 135.10229492 473.39501953 C133.20117188 474.12939453 133.20117188 474.12939453 130.20117188 474.12939453 C130.20117188 474.78939453 130.20117188 475.44939453 130.20117188 476.12939453 C127.89117187 476.45939453 125.58117187 476.78939453 123.20117188 477.12939453 C123.20117188 477.78939453 123.20117188 478.44939453 123.20117188 479.12939453 C119.324331 480.32226865 116.28495264 481.12939453 112.20117188 481.12939453 C112.20117188 481.78939453 112.20117188 482.44939453 112.20117188 483.12939453 C105.31873056 485.3516248 98.5295513 487.40337919 91.40820312 488.69189453 C88.92956257 489.14490955 88.92956257 489.14490955 85.51367188 490.25439453 C81.95037728 491.19564216 78.87033512 491.2791563 75.20117188 491.12939453 C75.20117188 491.78939453 75.20117188 492.44939453 75.20117188 493.12939453 C60.94628331 494.89628832 46.87827687 495.44427052 32.51928711 495.39013672 C29.13897827 495.3793955 25.75919935 495.39011221 22.37890625 495.40283203 C9.52267729 495.40986479 -3.05063913 494.81393211 -15.79882812 493.12939453 C-15.79882812 492.46939453 -15.79882812 491.80939453 -15.79882812 491.12939453 C-20.41882813 490.79939453 -25.03882813 490.46939453 -29.79882812 490.12939453 C-29.79882812 489.46939453 -29.79882812 488.80939453 -29.79882812 488.12939453 C-30.46269531 488.06880859 -31.1265625 488.00822266 -31.81054688 487.94580078 C-40.58090194 487.11357731 -40.58090194 487.11357731 -44.79882812 486.12939453 C-44.79882812 485.46939453 -44.79882812 484.80939453 -44.79882812 484.12939453 C-45.95382813 484.02626953 -47.10882813 483.92314453 -48.29882812 483.81689453 C-55.81021125 482.85659511 -62.37395004 479.46633837 -69.19335938 476.32470703 C-72.37227329 474.86631474 -75.57779948 473.49213742 -78.79882812 472.12939453 C-80.11159583 471.56751959 -81.42409923 471.00502669 -82.73632812 470.44189453 C-83.74695313 470.00876953 -84.75757813 469.57564453 -85.79882812 469.12939453 C-85.79882812 468.46939453 -85.79882812 467.80939453 -85.79882812 467.12939453 C-87.77882812 466.79939453 -89.75882813 466.46939453 -91.79882812 466.12939453 C-91.79882812 465.46939453 -91.79882812 464.80939453 -91.79882812 464.12939453 C-92.68570313 463.86126953 -93.57257813 463.59314453 -94.48632812 463.31689453 C-97.58979473 462.20433103 -100.10993498 461.02743675 -102.79882812 459.12939453 C-102.79882812 458.46939453 -102.79882812 457.80939453 -102.79882812 457.12939453 C-103.50007813 457.04689453 -104.20132813 456.96439453 -104.92382812 456.87939453 C-108.48917332 455.94930448 -110.88898384 454.36253084 -113.79882812 452.12939453 C-113.79882812 451.46939453 -113.79882812 450.80939453 -113.79882812 450.12939453 C-114.78882812 449.82001953 -114.78882812 449.82001953 -115.79882812 449.50439453 C-119.87062999 447.63815201 -123.48679811 445.15377926 -126.79882812 442.12939453 C-126.79882812 441.46939453 -126.79882812 440.80939453 -126.79882812 440.12939453 C-127.45882812 439.94376953 -128.11882812 439.75814453 -128.79882812 439.56689453 C-133.11644572 437.4980361 -136.32882419 434.38887522 -139.79882812 431.12939453 C-140.66121094 430.33855469 -140.66121094 430.33855469 -141.54101562 429.53173828 C-142.79882812 428.12939453 -142.79882812 428.12939453 -142.79882812 426.12939453 C-143.66507813 425.78908203 -143.66507813 425.78908203 -144.54882812 425.44189453 C-147.39474194 423.78177814 -148.79724733 421.73751496 -150.79882812 419.12939453 C-151.54132813 418.38689453 -152.28382813 417.64439453 -153.04882812 416.87939453 C-158.31239016 411.6158325 -163.22871704 406.00525164 -167.79882812 400.12939453 C-168.54132813 399.26314453 -169.28382813 398.39689453 -170.04882812 397.50439453 C-171.79882812 395.12939453 -171.79882812 395.12939453 -171.79882812 392.12939453 C-172.78882813 391.79939453 -173.77882812 391.46939453 -174.79882812 391.12939453 C-174.79882812 390.13939453 -174.79882812 389.14939453 -174.79882812 388.12939453 C-175.45882812 388.12939453 -176.11882812 388.12939453 -176.79882812 388.12939453 C-177.45882812 386.14939453 -178.11882812 384.16939453 -178.79882812 382.12939453 C-179.45882812 382.12939453 -180.11882812 382.12939453 -180.79882812 382.12939453 C-181.12882812 380.80939453 -181.45882812 379.48939453 -181.79882812 378.12939453 C-182.45882812 378.12939453 -183.11882812 378.12939453 -183.79882812 378.12939453 C-184.45882812 375.81939453 -185.11882812 373.50939453 -185.79882812 371.12939453 C-186.45882812 371.12939453 -187.11882812 371.12939453 -187.79882812 371.12939453 C-188.12882812 369.14939453 -188.45882812 367.16939453 -188.79882812 365.12939453 C-189.45882812 365.12939453 -190.11882812 365.12939453 -190.79882812 365.12939453 C-191.63909209 363.36183927 -192.47081534 361.5902219 -193.29882812 359.81689453 C-193.76289063 358.83076172 -194.22695312 357.84462891 -194.70507812 356.82861328 C-195.79882812 354.12939453 -195.79882812 354.12939453 -195.79882812 351.12939453 C-196.45882812 351.12939453 -197.11882812 351.12939453 -197.79882812 351.12939453 C-198.12882812 349.14939453 -198.45882812 347.16939453 -198.79882812 345.12939453 C-199.45882812 345.12939453 -200.11882812 345.12939453 -200.79882812 345.12939453 C-200.9921875 344.46552734 -201.18554688 343.80166016 -201.38476562 343.11767578 C-202.99503859 337.62031445 -202.99503859 337.62031445 -204.98632812 332.25439453 C-205.79882812 330.12939453 -205.79882812 330.12939453 -205.79882812 326.12939453 C-206.45882812 326.12939453 -207.11882812 326.12939453 -207.79882812 326.12939453 C-207.98058594 325.241875 -207.98058594 325.241875 -208.16601562 324.33642578 C-208.33359375 323.54623047 -208.50117188 322.75603516 -208.67382812 321.94189453 C-208.83625 321.16458984 -208.99867188 320.38728516 -209.16601562 319.58642578 C-209.74107556 317.09554099 -209.74107556 317.09554099 -210.83007812 314.72314453 C-211.95989163 311.69815999 -212.21174513 309.03348657 -212.42382812 305.81689453 C-212.49859375 304.74826172 -212.57335937 303.67962891 -212.65039062 302.57861328 C-212.72386719 301.36625 -212.72386719 301.36625 -212.79882812 300.12939453 C-213.45882812 300.12939453 -214.11882812 300.12939453 -214.79882812 300.12939453 C-214.93160156 299.05818359 -215.064375 297.98697266 -215.20117188 296.88330078 C-215.37933372 295.48613684 -215.55773131 294.08900294 -215.73632812 292.69189453 C-215.82333984 291.98484375 -215.91035156 291.27779297 -216 290.54931641 C-216.18099003 287.04121485 -216.18099003 287.04121485 -217.79882812 284.12939453 C-217.89326148 281.82885618 -217.91624941 279.5253728 -217.91235352 277.22290039 C-217.91249954 276.50099014 -217.91264557 275.7790799 -217.91279602 275.03529358 C-217.91209681 272.63824506 -217.90430408 270.2412733 -217.89648438 267.84423828 C-217.89462022 266.18656965 -217.89319631 264.52890046 -217.89219666 262.87123108 C-217.88837125 258.49985239 -217.87854078 254.12850672 -217.86749268 249.75714111 C-217.85727904 245.29984992 -217.85269914 240.84255342 -217.84765625 236.38525391 C-217.83691853 227.6332856 -217.81984184 218.88134417 -217.79882812 210.12939453 C-217.13882813 210.12939453 -216.47882813 210.12939453 -215.79882812 210.12939453 C-215.46882812 204.84939453 -215.13882813 199.56939453 -214.79882812 194.12939453 C-214.13882813 194.12939453 -213.47882813 194.12939453 -212.79882812 194.12939453 C-212.76144531 193.45134766 -212.7240625 192.77330078 -212.68554688 192.07470703 C-212.27026159 186.19557025 -211.36256501 180.92033599 -209.51757812 175.32080078 C-208.84542838 173.27147465 -208.29579892 171.22718471 -207.79882812 169.12939453 C-207.13882813 169.12939453 -206.47882813 169.12939453 -205.79882812 169.12939453 C-205.46882812 166.15939453 -205.13882813 163.18939453 -204.79882812 160.12939453 C-204.13882813 160.12939453 -203.47882813 160.12939453 -202.79882812 160.12939453 C-202.68925781 159.48873047 -202.5796875 158.84806641 -202.46679688 158.18798828 C-201.47422485 152.77322543 -200.17424159 148.09616814 -197.79882812 143.12939453 C-197.13882813 143.12939453 -196.47882813 143.12939453 -195.79882812 143.12939453 C-195.13882813 140.48939453 -194.47882813 137.84939453 -193.79882812 135.12939453 C-193.13882813 135.12939453 -192.47882813 135.12939453 -191.79882812 135.12939453 C-191.30382812 132.15939453 -191.30382812 132.15939453 -190.79882812 129.12939453 C-190.13882813 129.12939453 -189.47882813 129.12939453 -188.79882812 129.12939453 C-188.53070313 128.26314453 -188.26257813 127.39689453 -187.98632812 126.50439453 C-186.82770825 123.21147489 -185.41672973 120.21811579 -183.79882812 117.12939453 C-183.13882813 117.12939453 -182.47882813 117.12939453 -181.79882812 117.12939453 C-181.46882813 115.47939453 -181.13882813 113.82939453 -180.79882812 112.12939453 C-180.13882813 112.12939453 -179.47882813 112.12939453 -178.79882812 112.12939453 C-178.13882813 110.14939453 -177.47882813 108.16939453 -176.79882812 106.12939453 C-176.13882813 106.12939453 -175.47882813 106.12939453 -174.79882812 106.12939453 C-174.30382812 104.14939453 -174.30382812 104.14939453 -173.79882812 102.12939453 C-173.13882813 102.12939453 -172.47882813 102.12939453 -171.79882812 102.12939453 C-171.30382812 100.14939453 -171.30382812 100.14939453 -170.79882812 98.12939453 C-170.13882813 98.12939453 -169.47882813 98.12939453 -168.79882812 98.12939453 C-168.55519531 97.40365234 -168.3115625 96.67791016 -168.06054688 95.93017578 C-166.64368053 92.7849957 -164.96767001 90.82735172 -162.61132812 88.31689453 C-161.80824219 87.45064453 -161.00515625 86.58439453 -160.17773438 85.69189453 C-159.39269531 84.84626953 -158.60765625 84.00064453 -157.79882812 83.12939453 C-156.54298952 81.69699248 -155.29238741 80.25996992 -154.04882812 78.81689453 C-151.41477924 75.79261618 -148.6758365 72.92648601 -145.79882812 70.12939453 C-145.24195313 69.53126953 -144.68507813 68.93314453 -144.11132812 68.31689453 C-142.79882812 67.12939453 -142.79882812 67.12939453 -140.79882812 67.12939453 C-140.30382812 65.64439453 -140.30382812 65.64439453 -139.79882812 64.12939453 C-137.32876195 61.58193725 -134.53287372 59.38776065 -131.79882812 57.12939453 C-130.91324219 56.39205078 -130.02765625 55.65470703 -129.11523438 54.89501953 C-122.07176695 49.12939453 -122.07176695 49.12939453 -119.79882812 49.12939453 C-119.79882812 48.46939453 -119.79882812 47.80939453 -119.79882812 47.12939453 C-118.47882813 46.79939453 -117.15882812 46.46939453 -115.79882812 46.12939453 C-115.79882812 45.46939453 -115.79882812 44.80939453 -115.79882812 44.12939453 C-114.47882813 43.79939453 -113.15882812 43.46939453 -111.79882812 43.12939453 C-111.79882812 42.46939453 -111.79882812 41.80939453 -111.79882812 41.12939453 C-109.81882812 40.46939453 -107.83882813 39.80939453 -105.79882812 39.12939453 C-105.79882812 38.46939453 -105.79882812 37.80939453 -105.79882812 37.12939453 C-104.14882812 36.79939453 -102.49882813 36.46939453 -100.79882812 36.12939453 C-100.79882812 35.46939453 -100.79882812 34.80939453 -100.79882812 34.12939453 C-96.87290217 32.07295712 -93.03312568 30.44001044 -88.79882812 29.12939453 C-88.79882812 28.46939453 -88.79882812 27.80939453 -88.79882812 27.12939453 C-85.82882813 26.63439453 -85.82882813 26.63439453 -82.79882812 26.12939453 C-82.79882812 25.46939453 -82.79882812 24.80939453 -82.79882812 24.12939453 C-80.15882813 23.46939453 -77.51882812 22.80939453 -74.79882812 22.12939453 C-74.79882812 21.46939453 -74.79882812 20.80939453 -74.79882812 20.12939453 C-72.53000725 19.29020055 -70.25905786 18.45787729 -67.98632812 17.62939453 C-67.34373047 17.39091797 -66.70113281 17.15244141 -66.0390625 16.90673828 C-63.14949074 15.85870707 -60.89806752 15.12939453 -57.79882812 15.12939453 C-57.79882812 14.46939453 -57.79882812 13.80939453 -57.79882812 13.12939453 C-53.34382813 12.63439453 -53.34382813 12.63439453 -48.79882812 12.12939453 C-48.79882812 11.46939453 -48.79882812 10.80939453 -48.79882812 10.12939453 C-47.91130859 9.94763672 -47.91130859 9.94763672 -47.00585938 9.76220703 C-46.21566406 9.59462891 -45.42546875 9.42705078 -44.61132812 9.25439453 C-43.83402344 9.09197266 -43.05671875 8.92955078 -42.25585938 8.76220703 C-39.76110459 8.18414233 -39.76110459 8.18414233 -37.36132812 7.09814453 C-34.5031513 6.01761427 -32.02770664 5.72425322 -28.98632812 5.50439453 C-28.01050781 5.42962891 -27.0346875 5.35486328 -26.02929688 5.27783203 C-24.92521484 5.20435547 -24.92521484 5.20435547 -23.79882812 5.12939453 C-23.79882812 4.46939453 -23.79882812 3.80939453 -23.79882812 3.12939453 C-22.65542969 2.99662109 -21.51203125 2.86384766 -20.33398438 2.72705078 C-18.84307193 2.54889143 -17.35218795 2.37049371 -15.86132812 2.19189453 C-15.10658203 2.10488281 -14.35183594 2.01787109 -13.57421875 1.92822266 C-8.5426776 1.31902261 -5.17517904 0.00318778 0 0 Z M-15.64257812 104.41455078 C-17.2092195 106.73804931 -17.66508961 108.32088563 -17.79882812 111.12939453 C-17.8478125 111.81001953 -17.89679688 112.49064453 -17.94726562 113.19189453 C-18.24463582 119.96278503 -16.91274286 124.80924421 -12.23632812 129.94189453 C-11.43195313 130.66376953 -10.62757813 131.38564453 -9.79882812 132.12939453 C-9.13882813 132.78939453 -8.47882813 133.44939453 -7.79882812 134.12939453 C-4.42746488 135.30138085 -1.02928593 135.33276336 2.51367188 135.50439453 C23.20182321 136.95769442 40.04053323 143.27196534 56.20117188 156.12939453 C56.98105469 156.72623047 57.7609375 157.32306641 58.56445312 157.93798828 C72.26348395 169.03021324 83.00485108 190.01173084 85.14257812 207.46142578 C85.36329042 209.62022708 85.57024776 211.78047739 85.76367188 213.94189453 C86.50436038 224.79183836 86.50436038 224.79183836 91.88476562 233.95751953 C92.46355469 234.42673828 93.04234375 234.89595703 93.63867188 235.37939453 C94.21488281 235.85892578 94.79109375 236.33845703 95.38476562 236.83251953 C100.80200203 240.70030983 105.67429602 240.85259407 112.20117188 240.12939453 C118.03376915 238.40121756 121.85910181 235.2407958 125.20117188 230.12939453 C127.21669902 223.87029153 127.37129302 218.46686381 126.95117188 211.94189453 C126.87165283 210.55587036 126.87165283 210.55587036 126.79052734 209.1418457 C125.83435862 193.90307307 122.82029639 180.87826174 116.20117188 167.12939453 C115.770625 166.18193359 115.34007812 165.23447266 114.89648438 164.25830078 C101.60630494 135.98851232 76.26049225 113.30544275 47.07958984 102.33154297 C33.42613115 97.58550443 20.0294375 94.99173242 5.57617188 94.81689453 C4.36574219 94.77338867 4.36574219 94.77338867 3.13085938 94.72900391 C-5.23618058 94.64071534 -10.44720819 97.87888594 -15.64257812 104.41455078 Z M-20.11132812 151.94189453 C-21.11268799 152.10705566 -22.11404785 152.2722168 -23.14575195 152.44238281 C-44.49143583 156.19318238 -63.47662005 165.94977719 -79.79882812 180.12939453 C-80.6315625 180.81646484 -81.46429688 181.50353516 -82.32226562 182.21142578 C-89.57758037 188.37958768 -95.18125522 195.50166497 -100.79882812 203.12939453 C-101.52199219 204.08587891 -102.24515625 205.04236328 -102.99023438 206.02783203 C-111.22572146 217.53495097 -116.68246816 231.36547134 -119.79882812 245.12939453 C-120.17361385 246.50445295 -120.54860134 247.8794564 -120.92382812 249.25439453 C-122.6010272 256.68199042 -123.01941007 264.15583502 -123.11132812 271.75439453 C-123.14033203 272.56134766 -123.16933594 273.36830078 -123.19921875 274.19970703 C-123.27035852 280.94156835 -121.64835989 285.05312583 -116.98242188 290.09033203 C-116.40621094 290.55697266 -115.83 291.02361328 -115.23632812 291.50439453 C-114.65753906 291.98650391 -114.07875 292.46861328 -113.48242188 292.96533203 C-108.65414446 296.30367697 -102.39050245 295.6332129 -96.79882812 295.12939453 C-90.84226942 293.42613019 -87.3012839 290.11774064 -83.79882812 285.12939453 C-82.72059082 281.89468261 -82.58695725 279.28180204 -82.42382812 275.87939453 C-80.62761153 249.79404015 -70.5457251 228.90038771 -51.48632812 210.94189453 C-35.77679799 197.45720286 -16.35375343 191.95717738 3.88867188 190.62939453 C9.93592736 190.1915468 13.9019436 188.81291584 17.95117188 184.19189453 C22.74823511 177.66255846 23.14315236 172.17467685 22.20117188 164.12939453 C19.92342609 158.13384053 15.72833911 153.8107385 9.93945312 151.05126953 C0.55033176 147.89030999 -10.5837982 150.36875617 -20.11132812 151.94189453 Z M144.88867188 206.62939453 C142.25966089 210.52422562 140.9757127 213.29580851 140.74414062 218.02392578 C140.68645508 218.97227295 140.62876953 219.92062012 140.56933594 220.89770508 C140.47990723 222.40457886 140.47990723 222.40457886 140.38867188 223.94189453 C138.7282184 246.38428944 129.27908205 266.03412898 113.02539062 281.71533203 C100.21238771 292.66752539 83.82959166 301.28319499 66.90429688 302.57470703 C65.9387085 302.64850586 64.97312012 302.72230469 63.97827148 302.79833984 C62.04305698 302.93284705 60.10613862 303.04519654 58.16821289 303.13232422 C50.31505104 303.63526002 45.13741144 305.96729039 39.76367188 311.75439453 C37.09016215 315.81812931 37.01215031 319.17033189 36.95117188 323.94189453 C36.92539063 325.14458984 36.89960938 326.34728516 36.87304688 327.58642578 C37.30781448 332.28088079 38.72304223 335.49350627 41.88476562 338.99267578 C42.75294922 339.71003906 42.75294922 339.71003906 43.63867188 340.44189453 C44.21488281 340.93302734 44.79109375 341.42416016 45.38476562 341.93017578 C54.72634987 348.09763032 73.70250387 344.01102953 84.20117188 342.12939453 C88.96782195 341.04936924 93.57181891 339.69329492 98.20117188 338.12939453 C99.97041016 337.53191406 99.97041016 337.53191406 101.77539062 336.92236328 C116.62915807 331.44493788 129.87037132 323.18486722 141.20117188 312.12939453 C142.55005907 310.99806978 143.90406983 309.8728196 145.26367188 308.75439453 C164.94263734 291.48590476 179.28600198 262.34492834 181.08837891 236.27978516 C181.31937904 231.87578269 181.45355307 227.47649443 181.51367188 223.06689453 C181.54050049 221.72727661 181.54050049 221.72727661 181.56787109 220.3605957 C181.55980074 214.27151189 180.76524315 209.90908089 176.48242188 205.26611328 C175.89460937 204.78787109 175.30679688 204.30962891 174.70117188 203.81689453 C174.11335937 203.32576172 173.52554688 202.83462891 172.91992188 202.32861328 C164.28104262 196.30103162 151.5210339 199.45927342 144.88867188 206.62939453 Z M-63.44335938 260.96826172 C-67.78798212 267.00948714 -68.69893435 271.58500127 -68.42382812 278.94189453 C-68.40271973 279.94164307 -68.38161133 280.9413916 -68.35986328 281.97143555 C-67.1957378 315.28070026 -52.054986 345.40117114 -27.86132812 368.06689453 C-4.60705383 388.39513431 23.0710446 398.99909244 53.82617188 399.44189453 C55.08856689 399.46872314 55.08856689 399.46872314 56.37646484 399.49609375 C62.81147927 399.48702853 66.91693163 398.09490358 71.88867188 393.81689453 C76.58522664 388.3587363 77.77066338 383.9781228 77.54882812 376.87939453 C76.83366581 371.22238028 74.51053536 367.02938429 70.26367188 363.25439453 C64.22074844 359.06134561 58.98541255 358.7668553 51.82617188 358.31689453 C29.63980593 356.58922286 10.1114523 346.99559891 -5.38085938 330.96142578 C-14.75577392 319.98111391 -21.16057719 307.06458207 -24.79882812 293.12939453 C-24.99347656 292.43716797 -25.188125 291.74494141 -25.38867188 291.03173828 C-26.62734958 286.19456622 -26.95647895 281.55604596 -27.17382812 276.56689453 C-27.6334469 268.78453594 -28.92195164 263.47364429 -34.79882812 258.19189453 C-43.17254942 252.43496114 -56.54373618 253.253303 -63.44335938 260.96826172 Z " fill="#000000" transform="translate(218.798828125,8.87060546875)"/>
</svg>
